<svg width="110" height="50" viewBox="0 0 110 50" fill="none" xmlns="http://www.w3.org/2000/svg">
<g clip-path="url(#clip0)">
<line x1="0.75" x2="0.75" y2="24" stroke="#DAA520" stroke-width="1.5"/>
<path d="M1 0.479187L13.2329 12.7121" stroke="#DAA520" stroke-width="1.5"/>
<line x1="12.4697" y1="12.4905" x2="24.4905" y2="0.469668" stroke="#DAA520" stroke-width="1.5"/>
<line x1="24.75" x2="24.75" y2="24" stroke="#DAA520" stroke-width="1.5"/>
<line x1="25" y1="26.25" x2="50" y2="26.25" stroke="#DAA520" stroke-width="1.5"/>
<line x1="37.75" y1="26" x2="37.75" y2="50" stroke="#DAA520" stroke-width="1.5"/>
<line x1="32.5" y1="5" x2="32.5" y2="21" stroke="white" stroke-linejoin="round"/>
<line x1="33" y1="5.5" x2="41" y2="5.5" stroke="white"/>
<line x1="33" y1="20.5" x2="41" y2="20.5" stroke="white" stroke-linejoin="round"/>
<line x1="33" y1="13" x2="39" y2="13" stroke="white"/>
<line x1="44.5" y1="21" x2="44.5" y2="5" stroke="white"/>
<line x1="45" y1="5.5" x2="52" y2="5.5" stroke="white"/>
<line x1="42.5" y1="31" x2="42.5" y2="47" stroke="white"/>
<path d="M45 38.5L42.5 38.5V35V31.5L45 31.5L48 31.5C48.0706 31.5 48.2009 31.5331 48.3964 31.7286C48.5863 31.9184 48.7995 32.2253 49.0285 32.6755L49.0362 32.7065C49.0497 32.7607 49.069 32.8389 49.0922 32.9346C49.1386 33.126 49.2004 33.3862 49.262 33.6621C49.3239 33.9387 49.3847 34.2273 49.4299 34.4768C49.4774 34.7395 49.5 34.9197 49.5 35C49.5 35.52 49.496 36.39 49.0528 37.2764C48.846 37.69 48.5288 38.0117 48.2502 38.2346C48.1126 38.3446 47.9893 38.4267 47.902 38.4804C47.8906 38.4875 47.8798 38.494 47.8697 38.5L47.4375 38.5L45 38.5Z" stroke="white" stroke-linejoin="round"/>
<path d="M51 47.0348L63.061 5" stroke="white"/>
<line y1="-0.5" x2="43.9185" y2="-0.5" transform="matrix(0.2758 0.961215 -0.970091 0.242741 62.5 5.13893)" stroke="white"/>
<line x1="56" y1="28.5" x2="70" y2="28.5" stroke="white"/>
<line x1="78.5" y1="47" x2="78.5" y2="29" stroke="white"/>
<line x1="79" y1="38" x2="87" y2="38" stroke="white"/>
<line x1="87.5" y1="29" x2="87.5" y2="47" stroke="white"/>
<path d="M105.165 44.7512C103.916 45.7066 102.426 46.2968 100.862 46.4562C99.2974 46.6156 97.7195 46.338 96.3035 45.6541C94.8876 44.9703 93.6891 43.907 92.8413 42.5827C91.9935 41.2584 91.5297 39.7248 91.5015 38.1526C91.4733 36.5804 91.8817 35.0312 92.6814 33.6773C93.481 32.3234 94.6406 31.2178 96.0311 30.4836C97.4216 29.7493 98.9885 29.4152 100.558 29.5183C102.127 29.6214 103.636 30.1578 104.919 31.0677" stroke="white"/>
</g>
<defs>
<clipPath id="clip0">
<rect width="110" height="50" fill="white"/>
</clipPath>
</defs>
</svg>
