<?xml version="1.0" encoding="utf-8"?>
<!-- Generator: Adobe Illustrator 21.1.0, SVG Export Plug-In . SVG Version: 6.00 Build 0)  -->
<svg version="1.1" id="Layer_1" xmlns="http://www.w3.org/2000/svg" xmlns:xlink="http://www.w3.org/1999/xlink" x="0px" y="0px"
	 viewBox="0 0 432 432" style="enable-background:new 0 0 432 432;" xml:space="preserve">
<g>
	<g>
		<path d="M22,228.4c-0.4,5.7-0.6,11.4,0.6,17.1c0.7,3,2,5,5.1,6.2c5.7,2,11.6,2.5,17.5,3.1c9.7,1,19.4,1.8,29.1,2.6
			c1.6,0.1,2.6,0.8,3.2,2.3c1.1,3,2.3,5.9,3.2,8.9c0.5,1.5,1.3,2.4,2.8,2.8c2.1,0.5,4.1,1.1,6.1,1.9c3.1,1.3,6.4,2.6,9.2,4.4
			c3.4,2.2,7.2,2.3,11,2.7c9.8,1.2,19.7,1.9,29.4,3.7c6.1,1.1,11.9,3.5,17.8,5.5c12,4,24,8.1,36,12c2.3,0.8,3.9,1.9,5.1,4.1
			c1.6,2.9,3.6,5.5,5.6,8.1c1.9,2.5,4.7,3.7,7.6,4.5c14.7,3.8,29.8,5.6,44.9,7.2c17.4,1.8,34.9,3.4,52.3,4.9
			c10.5,0.9,21.1,2,31.6,2.2c18.3,0.3,36.5,0.2,54.8,0c5.2-0.1,10.1,0.1,15.2-0.8c4-0.7,9.4-2.5,10.9-6.8c1.7-5.2-5.9-7.7-9.6-9.1
			c-4.9-1.9-10.1-3-15.1-4.4c-8.8-2.4-17.6-4.8-26.3-7.2c-0.6-0.2-1.2-0.5-1.7-0.8c0.4-0.6,0.7-1.2,1.1-1.7
			c5.4-6.9,13.3-9.3,21.2-11.6c8.2-2.4,16.4-4.8,24.7-7.3c1.7-0.5,2.6-1.5,2.7-3.3c0.4-5.4,0.9-10.8,1.4-16.2c0.2-1.8-1-1.8-2.2-1.8
			c-6.4-0.1-12.8-0.2-19.1-0.4c-2.4-0.1-4.8-0.3-7.2-0.6c-1.6-0.2-2.1-1-1.6-2.8c0.5-1.7,0.6-3.6,0.3-5.4
			c-1.6-8.4-3.4-16.8-5.2-25.2c-0.6-2.8-2.1-4.4-4.9-4.9c-4.2-0.9-8.5-1.8-12.7-2.6c-2-0.4-2.8-1-2.7-3.3c0.6-10.9,1-21.8,1.7-32.7
			c0.2-2.6-0.9-3.7-3.2-4.4c-8.1-2.3-16.2-4.7-24.3-7.1c-3.2-1-6.4-1.9-8.2-5.3c-0.9-1.8-3.9-2.4-6.1-0.8c-4.2,2.9-8.9,3.1-13.6,3.8
			c-7.1,1.1-14.2,2.1-21.3,3.3c-0.9,0.2-2.1,0.8-2.5,1.6c-1.8,3.5-3,7.2-3,11.3c0.1,12.5,0,24.9,0,37.4c0,2-0.7,2.5-2.6,2.4
			c-8.2-0.3-16.4-0.5-24.6-0.7c-1.7,0-3.4-0.1-5.1,0c-3.2,0.2-3.9,0.9-4.4,4c-0.1,0.5-0.2,1-0.2,1.5c-0.8,5.3,0,4.7-5.9,3.1
			c0.9,3.3,1.6,6.2,2.4,9.2c1.2,4.7,2.5,9.5,3.8,14.2c0.5,1.9-0.2,2.6-2,3c-5,0.8-5,0.9-6.7-3.9c-2.7-7.7-6.6-14.8-11.4-21.5
			c-4.2-5.8-10.9-5.7-15.8-3.2c-8.5,4.2-13.1,11.4-14.8,20.4c-0.9,4.4-1,9-1.3,13.6c-0.1,1.5-0.5,2.6-2.2,2.7
			c-3.9,0.4-5.8,2.7-6.7,6.4c-0.7,2.9-2.1,5.6-3.1,8.5c-0.6,1.8-1.4,2.4-3.4,1.7c-6.9-2.5-13.9-4.7-20.8-7.1
			c-2.3-0.8-1.8-1.1-1.3-4.5c0.3-1.4,1.1-2.8,3.3-2.3c1.7,0.4,3.5,0.3,5.2,0.6c2,0.3,2.5-0.7,2.6-2.5c0.5-5.8-0.3-11.4-2.9-16.7
			c-0.2-0.4-0.3-0.8-0.5-1.2c-0.8-2.3-0.7-2.7,1.8-2.9c3.4-0.4,6.9-0.6,10.3-0.7c2.3-0.1,4.4-0.3,5.1-3.1c0.2-0.6,1.2-1.4,1.9-1.5
			c1.9-0.3,3.9-0.5,5.8-0.4c3.3,0.1,6.6-1.7,8.1-5.1c-2.3-0.3-4.5-0.7-6.7-0.8c-6.1-0.3-12.2-0.4-18.2-0.5c-1.8,0-2.5-0.8-2.4-2.6
			c0.1-1.9-0.2-3.3-2.6-3.4c-0.6,0-1.5-1.1-1.6-1.9c-0.3-1.5-0.2-3.1-0.5-4.6c-0.1-0.4-0.3-1.2-0.7-1.4c-0.6-0.3-1.6-0.2-2.2-0.2
			c-0.9,0-1.9,0-2.9,0c-1.8,0-3.6,0.1-5.4,0.3c-2.4,0.3-2.7,1.6-1,3.5c1.3,1.4,2.9,2.6,4.1,4c0.8,0.9,1.5,2.2,1.6,3.4
			c0.3,6.5,0.3,13.1,0.5,19.6c0,1.4-0.3,2.2-1.9,2.3c-3.9,0.2-7.7,0.6-11.6,1c-1.6,0.2-2.2-0.4-2.2-2.1c0.3-10,0.6-19.9,0.9-29.9
			c0-0.1,0-0.3,0-0.4c0.4-6.8,3.6-8.7,9.8-6c2.6,1.2,5,3.2,8.2,2.9c1.4-0.1,2.1-0.5,2.2-2c0.4-6.7,0.4-6.7-6.3-6.7
			c-7.1,0-14.2,0-21.3-0.1c-1.9,0-2.8,0.4-2.7,2.6c0.2,3.5,0,3.5-3.4,3.6c-34.8,0.5-69.7,0.9-104.5,1.4c-3.6,0-3.7,0-3.6-3.6
			c0.4-16,0.9-32.1,1.2-48.1c0-2.1,1-3.1,2.7-4c25.3-13.8,50.5-27.6,75.8-41.4c5.8-3.2,11.6-6.6,17.4-9.7c5.1-2.8,10.4-5.3,16-8.1
			c0.1,1.1,0.2,1.8,0.2,2.6c-0.2,7.3-0.5,14.5-0.6,21.8c-0.2,9.5-0.1,19.1-0.3,28.6c-0.2,17-0.5,34-0.9,51c0,2.2,0.5,2.9,2.8,2.9
			c8.3-0.1,16.6-0.1,24.9,0c2.3,0,2.8-0.8,2.8-2.9c0-9.2,0.1-18.3,0.2-27.5c0-1,0.2-2,0.3-3.4c1.1,0.6,1.9,0.9,2.5,1.4
			c1.8,1.7,3.9,1.8,6.1,1.2c2.4-0.6,4.8-1.1,7.4-1.3c-1.6,3.9-1.5,8.6-6.5,10.5c-2.7,1-4.3,4.6-2.9,6.9c2.3,4,4.9,8,7.6,11.8
			c1.3,1.8,3.3,2.9,5.7,2.7c1.5-0.1,2.3-0.8,2.3-2.4c0-1.2,0-2.4-0.1-3.5c-0.7-6,0.4-11.9,1.7-17.8c0.3-1.3,1.5-2.6,2.6-3.5
			c1-0.9,2.2-1.7,3.3-2.5c0.8-0.6,2.4-1.3,2.7-2.3c0.4-1.1-3.5-1.6-4.2-1.8c-1.8-0.5-3.6-1-5.5-1.3c-3.7-0.7-7.5-0.6-11,0.9
			c-4.1,1.7-9.3-0.3-11.5-4.1c-0.3-0.6-0.3-1.4-0.4-2.1c-0.3-4-0.7-8-0.7-12.1c0-2.8,0.3-5.6,0.9-8.3c0.8-3.6,3-5.2,6.8-5.4
			c0.8-0.1,6,0.3,5-1.5c-1.2-2-5.3-1.6-7.2-1.2c-2.4,0.6-4.7,2-6.2,4c-0.3,0.4-0.6,1-1,1.1c-3.4,0.6-5.4,3.6-8.3,5.1
			c-0.8,0.4-2,0.7-2.6,0.4c-0.6-0.4-0.8-1.7-0.7-2.5c0.5-4.7,1.4-9.3,1.8-14c0.7-8.8,1.1-17.5,1.6-26.3c0.1-2.5,0.1-5,0.2-7.5
			c0.1-1.4-0.5-2.2-1.9-2.4c-4.9-0.4-9.8-0.9-14.7-1.3c-0.8-0.1-1.7,0.3-2.5,0.8c-16.3,9.1-32.6,18.3-48.8,27.5
			c-21.3,12-42.7,23.9-64.1,35.8c-1.6,0.9-2.3,2-2.3,3.8c-0.3,15-0.8,29.9-0.9,44.9c0,3.9,1,7.8,1.4,11.7
			C22.2,224.3,22.2,226.4,22,228.4z M183.4,184.6c0.6-1.5,1.1-3.1,2-4.5c0.5-0.7,1.7-1.4,2.5-1.4c1.5,0,3,0.5,4.5,0.7
			c0.1,0.2,0.2,0.5,0.3,0.7c-2.9,1.7-5.8,3.4-8.7,5.1C183.7,185,183.6,184.8,183.4,184.6z M361.7,190.7c0,3.3,0,6.6-0.1,9.8
			c-0.1,6.4-0.1,12.9-0.3,19.3c-0.2,11-0.5,22-0.6,33c0,2.2-0.8,2.8-2.9,2.9c-12.5,0.4-25,0.9-37.6,1.4c-9,0.4-18,0.8-27,1.2
			c-3.4,0.1-3.9-0.4-3.9-3.6c0-12,0.1-21.3,0.1-33.3c0.1,0,0-2.7,0.1-2.7c0-4.5,0-9.1,0-13.6c0-7.8,0.1-15.5,0.1-23.3
			c0-1.5,0.4-2.4,2-2.5c7.9-0.9,15.8-1.8,23.8-2.7c2.1-0.2,4.2-0.7,5.7,1c0.7,0.8,1.2,1.7,2,2.5c0.5,0.5,1,0.8,1.7,1.1
			c1.1,0.4,2.3,0.5,3.3,0c3.3-1.5,2.3-6.3,6.9-5.2c7,1.6,14,3.2,20.9,4.9c2.4,0.6,4.6,1,5.5,3.6
			C362.2,186.5,361.8,188.7,361.7,190.7z M312.8,260.3c11.3-0.2,22.5-0.6,33.8-0.9c1.3,0,2.5,0.4,3.6,1.1c0.5,0.3,3,1.9,2.5,2.6
			c-0.2,0.4-1.3,0.2-1.7,0.2c-0.8,0-1.7,0.1-2.5,0.1c-1.7,0.1-3.4,0.1-5.1,0.2c-6.1,0.2-12.2,0.4-18.3,0.6c-3.1,0.1-6.1,0.2-9.2,0.3
			c-1.4,0-2.9,0.1-4.3,0.2c-1.3,0.1-2.6,0.2-3.8,0c-0.9-0.1,0-1.2,0.3-1.5c0.6-0.6,1.1-1.4,1.8-1.9
			C310.7,260.7,311.7,260.3,312.8,260.3z M369.4,235.4c-1.6,0-3.5,0.2-3.6-1.9c0-2.6,0.6-3.3,3.4-3.3c2.8,0,3.3,0.4,3.4,2.7
			C372.8,235,371.1,235.4,369.4,235.4z M379.2,230.9c1.2,0,3.7,0,3.4,1.8c-0.5,3-0.5,3.4-3.9,3.4c-2.7,0-3-0.5-3-3.1
			c0-2.1,1.6-2.1,3.2-2.1C378.9,230.9,379,230.9,379.2,230.9z M287.4,290.5c0,0-0.1-0.1-0.1-0.1c-0.3-0.6,1.3-0.6,1.5-0.6
			c1.3,0,2.6-0.1,3.9-0.1c2.1-0.1,4.3-0.2,6.5-0.2c15.4-0.1,30.8-0.2,46.2,0c16.3,0.2,32.3-2,48.1-5.9c1.6-0.4,3.2-0.7,4.8-0.9
			c0.8-0.1,1.6-0.3,2.4-0.4c0.3-0.1,1.8-0.6,1.9,0c0.1,0.5-1.8,0.9-2.2,1c-2.7,0.7-5.4,1.4-8,2.2c-12.8,3.6-25.8,5.8-39,6
			c-21.3,0.3-42.7-0.2-64-0.4C289,290.9,287.8,290.9,287.4,290.5z M271.9,270.1c0-0.5,0.9-1.5,1.5-1.6c1.6-0.3,3.2-0.2,4.8-0.2
			c9.2-0.1,18.3-0.1,27.5-0.3c6.1-0.1,12.2-0.3,18.3-0.4c6.1-0.1,12.2-0.3,18.3-0.4c6.1-0.2,12.2-0.3,18.3-0.5
			c6.1-0.2,12.2-0.3,18.3-0.5c6.1-0.2,12.2-0.3,18.3-0.5c2,0,4-0.1,6-0.2c1,0,2-0.1,3-0.1c0.7,0,1.6-0.2,2.3-0.1
			c0.5,0.1,0.7,0.5,0.3,0.9c-0.5,0.5-1.6,0.5-2.3,0.6c-1.5,0.2-3,0.3-4.4,0.4c-12.3,0.5-24.6,0.9-36.9,1.3
			c-26.1,0.8-52.2,1.5-78.3,2.2c-3.1,0.1-3.3,0.5-4,3.5c-0.9,4.3-1.9,8.6-3.1,12.8c-0.5,1.8-3.7,3.2-5.4,2.6
			c-0.4-0.2-0.9-0.8-0.9-1.3C272.9,282.2,272.3,276.1,271.9,270.1z M272.5,230.2c0.1,0,0.1,0,0.2,0c1.5,0,3.2-0.3,4.6,0.1
			c0.3,0.1,0.5,0.2,0.6,0.5c0.3,0.5,0.1,1.7,0.1,2.3c0,0.9,0,1.7-0.2,2.5c-0.2,0.7-1.4,1.6-2.2,1.7c-2.2,0.3-4.5,0.2-6.8,0.1
			c-0.5,0-1.3-0.9-1.4-1.4C266.8,230.4,266.9,230.2,272.5,230.2z M255.2,233.2c0.1-0.8,0-1.6,0.3-2.3c0.2-0.5,0.9-0.6,1.5-0.6
			c1.4,0,2.8,0,4.2-0.1c1,0,2.5-0.3,3.4,0.4c0.3,0.2,0.5,0.6,0.6,1c0.4,1.2,0.8,3.7-0.3,4.8c-0.5,0.5-1.2,0.6-1.8,0.7
			c-0.9,0.1-1.8,0.3-2.7,0.3c-1.2,0.1-2.4,0.1-3.5-0.1C254.8,236.9,255.1,234.8,255.2,233.2z M203.5,279.6c0.1-2-0.1-5.3,0.7-8.2
			c1-3.4,2.5-6.9,4.5-9.9c2.2-3.3,5.8-3.3,8.3-0.3c1.7,2,3.2,4.5,3.9,6.9c2.3,8,1.8,16.1,0.4,24.2c-0.4,2.3-1.3,4.7-2.6,6.7
			c-3.4,5.4-7.7,5.4-11.4,0.1c-0.6-0.9-1.2-1.9-1.6-2.8C203.5,291.3,203.7,286,203.5,279.6z M201.8,254.1c2.3-4,5.4-7.2,10.1-8.1
			c8.7-1.7,19.3,6,21,15.4c1.8,9.8,0.8,19.4-1.8,28.9c-0.5,2-1.3,3.9-2,5.8c-0.2,0-0.4-0.1-0.6-0.1c0-0.7,0-1.3,0-2
			c0.4-6.8,0.9-13.6,1.2-20.4c0.4-6.7-1.9-12.4-6.5-17.4c-4.1-4.5-9.1-5.8-14.6-3.3c-1.7,0.8-3.3,1.9-5,2.7
			c-0.5,0.3-1.2,0.2-1.8,0.2C201.8,255.3,201.6,254.5,201.8,254.1z M103.4,261c-0.3,0.2-1.2-1.4-1.3-1.7c-0.3-0.7-0.3-1.6-0.2-2.3
			c0.1-0.8,0.4-1.6,0.9-2.2c0.1-0.2,1.5-1.7,1.7-1.5c0.5,0.7,0,2.7,0,3.5c-0.1,1.3-0.4,2.7-0.8,3.9
			C103.6,260.8,103.6,260.9,103.4,261z M97.2,257.2c-0.1-2.8,0.2-5.6,0.6-8.3c0.1-1,0.5-2,1-2.9c0.4-0.7,0.9-1.4,1.8-1.6
			c0.9-0.2,1.9,0.7,2.1,1.6c0.3,1.2,0.1,2.7-0.3,3.9c-0.2,0.9-1,1.6-1.6,2.4c-2.3,3.4-2.4,9.7,1.1,12.6c0.6,0.5,0.8,2,0.6,2.8
			c-0.2,0.9-1.3,1.5-2.2,1.3c-0.9-0.2-1.6-1.2-1.7-2c-0.6-3-1.1-6-1.3-9C97.2,257.7,97.2,257.5,97.2,257.2z M81.1,253.6
			c0-0.8,0-1.6,0.1-2.4c0.2-1.4,0.7-2.8,0.9-4.2c0.2-1.1,0.3-2.6,1.3-3.3c0.3-0.3,0.8-0.4,1.2-0.2c0.3,0.1,0.5,0.4,0.5,0.7
			c0.3,1.1,0.1,2.9-0.5,3.8c-1.4,2.2-1.9,4.7-1.5,7.1c0.3,2,1.5,3.7,1.9,5.7c0.1,0.4,0,0.9-0.3,1.2c-0.4,0.4-1,0.4-1.5,0.1
			c-0.9-0.5-1-1.8-1.2-2.7c-0.3-1.2-0.5-2.4-0.7-3.6C81.2,255.2,81.1,254.4,81.1,253.6z"/>
		<path d="M300.9,167.8c-0.7,0-1.8-1.1-2-1.8c-1.3-4.6-2.8-9.2-3.7-13.9c-0.6-3.4-0.7-7.7-2.9-10.4c-1.8-2.2-4.9-2.8-7.4-3.7
			c-3.6-1.2-7.4-2-11.2-2.2c-15.3-0.9-30.6-1.7-45.9-2.5c-2.9-0.2-5.8-0.3-8.8-0.5c-2.7-0.1-5.5-0.1-8.2-0.5c-0.3,0-0.6-0.1-0.8-0.4
			c-0.7-0.9,1.3-3.7,2-4.3c1.2-1,2.8-1.1,4.3-1.1c1.5,0,3.1-0.1,4.6-0.1c7.6,0,15.2,0,22.8,0c1,0,4.2,0.2,4.4-1.3
			c0.1-0.4-0.2-0.8-0.5-1c-0.8-0.6-2-0.6-2.9-0.7c-1.1-0.1-2.3-0.3-3.4-0.3c-6.1-0.3-12.3-0.5-18.4-0.7c-3.1-0.1-6.1-0.6-9.2-0.4
			c-5.3,0.3-9.7,2.4-12.2,7.4c-0.8,1.6-1.9,2.3-3.5,2.5c-6,0.8-11.9,1.6-17.9,2.5c-3.3,0.5-6.6,1.3-9.5,3c-1.4,0.8-2.7,1.9-3.8,3.2
			c-1.2,1.3-1.9,3.1-3.5,4c-0.5,0.3-1.2,0.5-1.7,0.1c-0.6-0.5-0.8-2.1-0.8-2.8c-0.1-1.5,0.1-3.1,0.2-4.6c0.1-3,0.3-6.1,0.5-9.1
			c0.3-6.1,0.6-12.2,0.9-18.3c0.1-2.1,0.2-4.1,0.3-6.2c0.1-2.8,0.2-2.8,3-2.5c9.8,1.1,19.5,2.1,29.3,3.2c18.1,1.9,36.1,3.8,54.2,5.8
			c3.2,0.3,3.5,0.7,3.8,4c0.4,4,0.7,8,1,12c0.3,3.2,0.4,3.4,3.6,3.7c8.5,0.9,16.9,2.3,25,4.8c2.4,0.7,4.7,1.5,7,2.5
			c1.9,0.8,3.9,1.6,5.3,3.2c1.1,1.4,1.6,3.2,1.8,4.9c1,6,3.1,11.8,4.7,17.6c0.6,2.3,1.7,3.2,4.2,3.1c2.4-0.1,4.8-0.1,7.2-0.1
			c0.8,0,6.2-0.4,6.1,0.6c0,0.3-0.2,0.5-0.4,0.6c-0.2,0.1-0.5,0.1-0.7,0.2C312.4,167.7,306.6,167.7,300.9,167.8z"/>
		<path d="M287.9,154.5c0.4,3.9,0.1,7.9,0.2,11.8c0,1.2,0.2,3.2,0.7,3.3c1.5,0.3,3.2,0,4.7-0.2c0.3-0.1,0.8-1,0.7-1.4
			c-1.1-7.2-1.7-14.6-4.5-21.4c-0.9-2.3-2.5-3.6-4.9-3.8c-7.3-0.8-14.7-1.9-22.1-2.3c-16.7-1-33.4-1.8-50.1-2.6
			c-5.3-0.2-5.6,0.1-5.5,5.3c0.1,6.9,0.4,13.8,0.9,20.6c0.4,4.8,1.7,6.1,6.4,6.5c4.6,0.4,9.3,0.5,14,0.5c13.7,0,27.4-0.1,41.1-0.2
			c1.3,0,2.5-0.2,4.2-0.3c-1.8-1.1-3.9-1.5-3.9-4.1c0-1.7,0.3-3.3,0.3-5c0-1.7,0.1-3.4,0.2-5.1c0.2-2.8,1.2-3.7,4-4
			c3-0.3,6-0.6,9-0.8C286.3,151,287.6,151.6,287.9,154.5z M231.5,164.5c0,1-1.2,1.2-1.8,1.1c-1.6-0.3-3.1-0.5-4.7-0.6
			c-3.2-0.2-6.4,0-9.6,0c-1.7,0-4.6,0.5-5.1-1.8c-0.1-0.5-0.1-1.1-0.1-1.7c0-0.5-0.2-1.5-0.1-2c0.3-1,1.8-0.6,2.5-0.6
			c1.6,0.1,3.3,0.2,4.9,0.3c3.2,0.2,6.4,0.4,9.7,0.7C230.9,160.2,231.6,160.9,231.5,164.5z"/>
		<path d="M181.3,145.4c5.8-0.6,11.6-1.5,17.5-1.4c0.4,0,0.8,0,1.1,0.3c0.4,0.3,0.4,0.9,0.4,1.4c0,3.8,0.1,7.6,0.1,11.4
			c0.2,4.9,0.3,9.7,0.4,14.6c0,2.5-4.5,1.1-5.8,0.8c-3.2-0.8-6.5-1.2-9.8-1.9c-1.3-0.3-2.9-0.3-4.1-0.9c-1-0.5-1.2-1.5-1.2-2.5
			c-0.1-3.3-0.5-6.5-0.5-9.8c-0.1-3.3,0-6.5-0.1-9.8C179.4,146.2,179.9,145.5,181.3,145.4z"/>
		<path d="M237.5,220.5c-0.8-0.3-1.6-0.5-2.4-0.7c-1.4-0.3-2.8-0.5-4.2-0.6c-2.8-0.3-5.6-0.2-8.4,0.4c-1.7,0.3-3.3,0.8-4.9,1.5
			c-1.8,0.7-3.5,1.7-5.1,2.8c-2.1,1.4-4,3-5.8,4.7c-0.9,0.9-1.8,1.7-2.7,2.6c-0.9,0.8-1.7,1.8-2.6,2.6c-0.1,0.1-0.1,0.1-0.2,0.1
			c-0.1,0-0.2-0.1-0.3-0.2s0-0.2,0-0.4c0.3-1.3,1-2.3,1.8-3.4c0.7-1,1.4-2,2.2-2.9c3-3.7,6.6-6.8,11-8.8c2.2-1,4.1-2.3,4.9-4.7
			c0.4-1.1,0.6-2.3,1-3.4c0.8-2.4,2.8-3.2,5.1-2c1.9,0.9,2.2,2.7,2.2,4.5c0,1.5,1.3,2.1,2.5,2.8c1.6,1,3.2,2,4.8,2.9
			c0.7,0.4,1.4,0.9,2,1.4c0.2,0.2,1.4,1.4,0.4,1.2C238.3,220.7,237.9,220.6,237.5,220.5z"/>
		<path d="M177,222.4c-0.4-0.1-0.9-0.1-1.3-0.3c-0.2-0.1-0.4-0.1-0.6-0.3c-0.2-0.2-0.2-0.4-0.2-0.6c0.1-0.2,0.4-0.3,0.6-0.4
			c1-0.2,2-0.3,3-0.4c6.1-0.2,12.2-0.5,18.3-0.7c2-0.1,2.9-1,3-3c0.1-2.2,0.4-4.4,0.5-6.6c0.5-10.3,1-20.6,1.6-31c0-0.8,0-4,1.3-3.4
			c0.3,0.1,0.6,0.4,0.7,0.8c0.1,0.3,0.1,0.7,0.2,1.1c0.3,9.8,0.1,19.7-0.1,29.5c-0.1,3.7-0.3,7.5-0.6,11.2c-0.3,2.9-1.5,4.1-4.4,4.2
			c-1.8,0-3.6,0-5.4,0c-3.1,0-6.1,0-9.2,0c-1.5,0-3.1,0-4.6,0C178.9,222.5,177.9,222.5,177,222.4z"/>
		<path d="M277.9,180.2c-4,0.1-8.1,0-12.1,0.2c-6.7,0.3-13.4,0.8-20.2,0.9c-10.3,0.2-20.6,0.1-31,0.2c-1.2,0-2.2,0.1-2.1-1.6
			c0.1-1.5-0.1-2.8,2.1-2.8c2.8,0.1,5.7,0.1,8.6,0.1c6.8,0.2,13.6,0.5,20.4,0.7c11.5,0.4,23,0.7,34.5,1c0.7,0,1.3,0.2,2,0.3
			c0,0.2,0,0.4,0,0.6C279.4,180.1,278.7,180.2,277.9,180.2z"/>
		<path d="M154.8,86.4c-0.3-0.2-0.5-0.3-0.8-0.3c-0.6-0.1-1.3,0.1-1.8-0.3c-0.3-0.2-0.4-0.5-0.5-0.9c-0.4-1.2-0.6-2.5-0.6-3.8
			c0-0.6,0.2-1.2,0.6-1.5c1.7-1.3,4,1.3,5,2.4c4.9,5.6,5.1,13,4.6,20c-0.9,0.5-1.9,0.4-2.8,0.3c-0.6,0-1.3-0.1-1.6-0.6
			c-0.2-0.3-0.2-0.6-0.2-0.9c-0.1-2.7-0.3-5.3-0.5-7.9c-0.1-1.5,0.1-4.2-0.6-5.6C155.4,86.9,155.1,86.6,154.8,86.4z"/>
		<path d="M188.3,268c0-5.1-0.1-9.9,0.2-14.6c0-0.4,2.6-0.8,4-1c0.2,0,1,1.3,0.9,2c-0.4,3.2-1,6.3-1.7,9.5
			C191.2,265.5,190.9,267.4,188.3,268z"/>
		<path d="M184.2,141.4C184.1,141.4,184.1,141.4,184.2,141.4c-0.6-0.1-0.9-1.3-0.9-1.7c-0.3-1.2-0.2-2.7,0.7-3.6
			c0.3-0.3,0.8-0.4,1.2-0.3c1.3,0.3,2.5,2.7,3,3.8c0.1,0.3,0.8,1.5,0.5,1.8c-0.2,0.3-1.9-0.9-2.4-1c-0.5-0.1-0.9,0-1.4,0.3
			C184.7,140.9,184.5,141.4,184.2,141.4z"/>
		<path d="M213.3,272.4c1.6-0.1,2.6,0.7,3,2c0.6,1.7-0.9,1.6-1.9,1.9c-1.9,0.6-2.5,2-2.2,3.8c0.3,1.7,0.5,3.5,2.9,3.8
			c0.8,0.1,2,0.7,2.2,1.3c0.2,0.8-0.3,2-0.9,2.7c-1.6,1.9-3.1,1.8-4.8,0c-2.3-2.3-2.2-5.3-2.4-8.4c0-0.8-0.1-1.8,0-2.9
			C209.3,274.5,211.2,272.6,213.3,272.4z"/>
	</g>
	<path d="M355.4,188.3c-16.6-0.4-33.1-0.7-49.7-1.1c-2.4-0.1-4.8-0.3-7.2-0.5c-4.1-0.4-5.2,0.5-5.2,4.6c0,10,0,19.9,0,29.9
		c0,10.3,0.1,20.5,0,30.8c0,2.2,0.7,2.7,2.8,2.7c19.6-0.8,39.3-1.5,58.9-2.3c3.4-0.1,3.4-0.1,3.4-3.6c0-19.1,0-38.1,0-57.2
		C358.4,188.4,358.4,188.4,355.4,188.3z M297.1,252.6l-1.5,0.1v-64.1l1.5,0V252.6z M301.4,252.4l-1.3,0.1v-63.8l1.3,0V252.4z
		 M305.6,252.2l-1.3,0.1v-63.5l1.3,0V252.2z M309.8,252l-1.3,0.1v-63.2l1.3,0V252z M314,251.8l-1.3,0.1V189l1.3,0V251.8z
		 M318.3,251.6l-1.3,0.1v-62.5l1.3,0V251.6z M322.5,251.4l-1.3,0.1v-62.2l1.3,0V251.4z M326.7,251.2l-1.3,0.1v-61.9l1.3,0V251.2z
		 M331,251.1l-1.3,0.1v-61.6l1.3,0V251.1z M335.2,250.9l-1.3,0.1v-61.3l1.3,0V250.9z M339.4,250.7l-1.3,0.1v-61l1.3,0V250.7z
		 M343.7,250.5l-1.3,0.1v-60.7l1.3,0V250.5z M347.9,250.3l-1.3,0.1v-60.4l1.3,0V250.3z M352.1,250.1l-1.3,0.1v-60.1l1.3,0V250.1z
		 M355.1,250v-59.8l1.1,0l0,59.7L355.1,250z"/>
</g>
</svg>
